<svg version="1.1" id="Layer_1" xmlns="http://www.w3.org/2000/svg" xmlns:xlink="http://www.w3.org/1999/xlink" x="0px" y="0px"
	 width="100%" viewBox="0 0 512 512" enable-background="new 0 0 512 512" xml:space="preserve">
<path fill="#ffffff" opacity="1.000000" stroke="none" 
	d="
M0.999997,192.000000 
	C1.000000,186.645065 1.000000,181.290146 1.351113,175.371124 
	C11.460896,157.613922 21.249228,140.437561 30.971306,123.223785 
	C45.668526,97.201088 60.278790,71.129181 75.020676,45.131866 
	C78.445679,39.091885 81.571091,32.913673 90.344955,32.922924 
	C201.490936,33.040108 312.637085,33.013912 423.783173,32.957310 
	C429.121735,32.954590 433.026337,35.492451 435.711304,39.507572 
	C439.182922,44.699104 441.914001,50.384357 444.989044,55.842896 
	C452.166107,68.582848 459.328796,81.331047 466.551575,94.045074 
	C475.678619,110.111183 484.835419,126.160538 494.025787,142.190506 
	C500.309448,153.150543 506.672424,164.065125 513.000000,175.000000 
	C513.000000,180.354935 513.000000,185.709854 512.617554,191.664902 
	C511.597595,195.254776 511.200348,198.320450 510.283569,201.221970 
	C504.349213,220.004044 493.155518,234.611298 475.637817,244.000641 
	C470.808289,246.589249 468.769745,249.717834 468.797241,255.779358 
	C469.114899,325.777649 469.000000,395.777893 469.000000,465.777618 
	C469.000000,476.380615 464.426392,480.999939 453.927399,480.999939 
	C322.927917,481.000000 191.928299,480.913177 60.929253,481.153961 
	C49.644672,481.174713 44.000072,475.354553 44.000053,463.874878 
	C43.999947,393.708496 43.933674,323.541931 44.137779,253.376129 
	C44.152599,248.281616 42.137032,246.081039 38.041767,243.907684 
	C25.914988,237.472092 16.413261,227.998428 10.159828,215.871719 
	C6.277068,208.342209 3.998560,199.985458 0.999997,192.000000 
M71.000000,387.500000 
	C71.000000,409.929199 71.000000,432.358429 71.000000,454.707947 
	C85.650566,454.707947 99.723106,454.707947 114.000000,454.707947 
	C114.000000,452.604645 114.000000,450.791840 114.000000,448.979004 
	C114.000000,409.980255 113.951782,370.981384 114.045029,331.982880 
	C114.061554,325.070923 114.150185,318.086182 115.128441,311.267456 
	C116.422714,302.246033 120.991333,294.502350 127.481537,288.227203 
	C137.415482,278.622437 150.056168,276.193542 163.306000,276.022247 
	C172.304199,275.905884 181.311020,275.806152 190.302414,276.079681 
	C194.984802,276.222107 199.776901,276.678131 204.288132,277.868896 
	C227.494766,283.994263 237.771072,301.710083 237.918243,323.676910 
	C238.199631,365.673676 238.000000,407.673676 238.000000,449.672333 
	C238.000000,451.420441 238.000000,453.168518 238.000000,454.648071 
	C306.770782,454.648071 374.841614,454.648071 442.653778,454.648071 
	C442.653778,387.552277 442.653778,320.808716 442.653778,254.074127 
	C415.844635,253.829727 394.368317,243.615875 378.758301,221.993469 
	C364.821045,241.450562 345.945038,252.383575 322.627777,253.756210 
	C295.631836,255.345367 273.704895,244.220932 257.013519,222.231110 
	C241.397354,243.065231 220.949600,253.930374 195.670624,253.827240 
	C170.469925,253.724426 150.330139,242.602219 135.280319,222.166641 
	C127.480423,232.027359 118.761200,240.806976 107.259491,246.236557 
	C95.873466,251.611481 83.763618,254.064270 71.000000,254.161728 
	C71.000000,298.547516 71.000000,342.523773 71.000000,387.500000 
M369.500000,163.000000 
	C404.592773,163.000000 439.685577,163.000000 475.540924,163.000000 
	C455.574646,127.870544 436.000519,93.430977 416.515991,59.149105 
	C416.071899,59.070564 415.908447,59.016327 415.744965,59.016315 
	C310.745087,59.008461 205.745148,59.031303 100.745537,58.863609 
	C97.733017,58.858803 96.532860,60.337845 95.498833,62.142361 
	C87.908730,75.388092 80.514709,88.745956 72.986061,102.027206 
	C66.565544,113.353607 59.995872,124.595543 53.590199,135.930237 
	C48.633327,144.701294 43.827999,153.557983 38.610844,163.000000 
	C148.982056,163.000000 258.741028,163.000000 369.500000,163.000000 
M140.000000,451.348206 
	C139.339081,454.623627 140.965851,455.088562 143.860001,455.064575 
	C160.023529,454.930328 176.188736,455.000000 192.353378,455.000000 
	C198.798721,455.000000 205.244064,455.000000 212.000000,455.000000 
	C212.000000,452.907867 212.000000,451.272552 212.000000,449.637238 
	C212.000000,410.475494 212.034988,371.313660 211.955795,332.152069 
	C211.945877,327.245514 211.528259,322.317413 210.957306,317.439331 
	C209.922455,308.597992 203.369064,303.010620 194.354202,303.002594 
	C182.522354,302.992035 170.690521,303.000000 158.858673,303.000000 
	C147.473831,303.000031 140.003647,310.471649 140.002197,321.893463 
	C139.996719,364.721405 140.000000,407.549377 140.000000,451.348206 
M485.600342,191.918015 
	C487.152527,187.638626 483.699615,189.058365 482.066040,189.054108 
	C453.449127,188.979263 424.831909,188.996597 396.214783,189.013779 
	C395.161102,189.014420 394.107544,189.216675 392.837677,189.347214 
	C395.419434,200.556808 400.873840,209.559998 409.245728,216.693878 
	C418.045013,224.191971 428.659882,227.840210 439.937042,227.775955 
	C450.304901,227.716888 460.323242,224.550949 468.526917,217.746231 
	C476.532440,211.105804 482.916901,203.178162 485.600342,191.918015 
M38.969681,211.451630 
	C54.840729,228.013519 73.528267,231.968903 94.466232,222.893677 
	C109.045204,216.574661 117.418442,204.771820 121.271347,189.273712 
	C89.870399,189.273712 59.000763,189.273712 27.817989,189.273712 
	C29.497902,197.680710 33.359692,204.612625 38.969681,211.451630 
M212.500000,189.000000 
	C191.704651,189.000000 170.909302,189.000000 150.082611,189.000000 
	C151.444412,206.298035 169.914825,227.422562 195.612106,227.707489 
	C216.385056,227.937805 238.210815,214.350540 242.499237,189.000000 
	C232.812775,189.000000 223.156387,189.000000 212.500000,189.000000 
M271.997528,191.580505 
	C278.363617,215.283508 296.142792,227.160782 317.848114,227.649887 
	C337.373749,228.089874 358.642090,215.334320 364.617371,189.000000 
	C335.609100,189.000000 306.633179,188.999634 277.657288,189.000900 
	C275.825592,189.000977 273.992310,188.986969 272.166504,189.094162 
	C272.067413,189.099991 272.030823,190.169586 271.997528,191.580505 
z"/>
<path fill="transparent" opacity="1.000000" stroke="none" 
	d="
M0.999997,192.468658 
	C3.998560,199.985458 6.277068,208.342209 10.159828,215.871719 
	C16.413261,227.998428 25.914988,237.472092 38.041767,243.907684 
	C42.137032,246.081039 44.152599,248.281616 44.137779,253.376129 
	C43.933674,323.541931 43.999947,393.708496 44.000053,463.874878 
	C44.000072,475.354553 49.644672,481.174713 60.929253,481.153961 
	C191.928299,480.913177 322.927917,481.000000 453.927399,480.999939 
	C464.426392,480.999939 469.000000,476.380615 469.000000,465.777618 
	C469.000000,395.777893 469.114899,325.777649 468.797241,255.779358 
	C468.769745,249.717834 470.808289,246.589249 475.637817,244.000641 
	C493.155518,234.611298 504.349213,220.004044 510.283569,201.221970 
	C511.200348,198.320450 511.597595,195.254776 512.617554,192.132507 
	C513.000000,298.959412 513.000000,405.918823 513.000000,512.939087 
	C342.438660,512.939087 171.877289,512.939087 1.000000,512.939087 
	C1.000000,406.312653 1.000000,299.624969 0.999997,192.468658 
z"/>
<path fill="transparent" opacity="1.000000" stroke="none" 
	d="
M513.000000,174.531342 
	C506.672424,164.065125 500.309448,153.150543 494.025787,142.190506 
	C484.835419,126.160538 475.678619,110.111183 466.551575,94.045074 
	C459.328796,81.331047 452.166107,68.582848 444.989044,55.842896 
	C441.914001,50.384357 439.182922,44.699104 435.711304,39.507572 
	C433.026337,35.492451 429.121735,32.954590 423.783173,32.957310 
	C312.637085,33.013912 201.490936,33.040108 90.344955,32.922924 
	C81.571091,32.913673 78.445679,39.091885 75.020676,45.131866 
	C60.278790,71.129181 45.668526,97.201088 30.971306,123.223785 
	C21.249228,140.437561 11.460896,157.613922 1.351113,174.903519 
	C1.000000,117.029503 1.000000,59.058998 1.000000,1.088498 
	C1.137083,1.058998 1.274165,1.003642 1.411248,1.003639 
	C171.824539,0.999979 342.237823,1.000000 513.000000,1.000000 
	C513.000000,58.687092 513.000000,116.374886 513.000000,174.531342 
z"/>
<path fill="transparent" opacity="1.000000" stroke="none" 
	d="
M71.000000,387.000000 
	C71.000000,342.523773 71.000000,298.547516 71.000000,254.161728 
	C83.763618,254.064270 95.873466,251.611481 107.259491,246.236557 
	C118.761200,240.806976 127.480423,232.027359 135.280319,222.166641 
	C150.330139,242.602219 170.469925,253.724426 195.670624,253.827240 
	C220.949600,253.930374 241.397354,243.065231 257.013519,222.231110 
	C273.704895,244.220932 295.631836,255.345367 322.627777,253.756210 
	C345.945038,252.383575 364.821045,241.450562 378.758301,221.993469 
	C394.368317,243.615875 415.844635,253.829727 442.653778,254.074127 
	C442.653778,320.808716 442.653778,387.552277 442.653778,454.648071 
	C374.841614,454.648071 306.770782,454.648071 238.000000,454.648071 
	C238.000000,453.168518 238.000000,451.420441 238.000000,449.672333 
	C238.000000,407.673676 238.199631,365.673676 237.918243,323.676910 
	C237.771072,301.710083 227.494766,283.994263 204.288132,277.868896 
	C199.776901,276.678131 194.984802,276.222107 190.302414,276.079681 
	C181.311020,275.806152 172.304199,275.905884 163.306000,276.022247 
	C150.056168,276.193542 137.415482,278.622437 127.481537,288.227203 
	C120.991333,294.502350 116.422714,302.246033 115.128441,311.267456 
	C114.150185,318.086182 114.061554,325.070923 114.045029,331.982880 
	C113.951782,370.981384 114.000000,409.980255 114.000000,448.979004 
	C114.000000,450.791840 114.000000,452.604645 114.000000,454.707947 
	C99.723106,454.707947 85.650566,454.707947 71.000000,454.707947 
	C71.000000,432.358429 71.000000,409.929199 71.000000,387.000000 
M399.000000,305.607544 
	C397.656891,295.022156 391.794922,287.310883 383.129822,281.710144 
	C376.445007,277.389343 368.700012,276.110748 360.890442,276.052368 
	C340.240265,275.897888 319.587891,275.945404 298.937073,276.050049 
	C295.196198,276.069000 291.320618,276.229950 287.742828,277.197021 
	C269.810791,282.044128 260.488892,294.648315 260.082733,312.566162 
	C259.697845,329.544861 259.913086,346.539886 260.071106,363.525818 
	C260.103912,367.055145 260.664154,370.684265 261.631409,374.082367 
	C266.389313,390.797455 278.709045,399.410248 294.447266,399.756409 
	C320.153076,400.321838 345.899414,399.562134 371.614777,398.856506 
	C379.112305,398.650757 385.533875,394.246582 390.395813,388.857544 
	C397.325195,381.176849 400.139496,371.638550 400.036102,361.203888 
	C399.892487,346.716064 400.066803,332.225250 399.954254,317.736877 
	C399.925171,313.990204 399.333496,310.247894 399.000000,305.607544 
z"/>
<path fill="transparent" opacity="1.000000" stroke="none" 
	d="
M369.000000,163.000000 
	C258.741028,163.000000 148.982056,163.000000 38.610844,163.000000 
	C43.827999,153.557983 48.633327,144.701294 53.590199,135.930237 
	C59.995872,124.595543 66.565544,113.353607 72.986061,102.027206 
	C80.514709,88.745956 87.908730,75.388092 95.498833,62.142361 
	C96.532860,60.337845 97.733017,58.858803 100.745537,58.863609 
	C205.745148,59.031303 310.745087,59.008461 415.744965,59.016315 
	C415.908447,59.016327 416.071899,59.070564 416.515991,59.149105 
	C436.000519,93.430977 455.574646,127.870544 475.540924,163.000000 
	C439.685577,163.000000 404.592773,163.000000 369.000000,163.000000 
z"/>
<path fill="transparent" opacity="1.000000" stroke="none" 
	d="
M140.000000,450.862762 
	C140.000000,407.549377 139.996719,364.721405 140.002197,321.893463 
	C140.003647,310.471649 147.473831,303.000031 158.858673,303.000000 
	C170.690521,303.000000 182.522354,302.992035 194.354202,303.002594 
	C203.369064,303.010620 209.922455,308.597992 210.957306,317.439331 
	C211.528259,322.317413 211.945877,327.245514 211.955795,332.152069 
	C212.034988,371.313660 212.000000,410.475494 212.000000,449.637238 
	C212.000000,451.272552 212.000000,452.907867 212.000000,455.000000 
	C205.244064,455.000000 198.798721,455.000000 192.353378,455.000000 
	C176.188736,455.000000 160.023529,454.930328 143.860001,455.064575 
	C140.965851,455.088562 139.339081,454.623627 140.000000,450.862762 
z"/>
<path fill="transparent" opacity="1.000000" stroke="none" 
	d="
M485.326080,192.247116 
	C482.916901,203.178162 476.532440,211.105804 468.526917,217.746231 
	C460.323242,224.550949 450.304901,227.716888 439.937042,227.775955 
	C428.659882,227.840210 418.045013,224.191971 409.245728,216.693878 
	C400.873840,209.559998 395.419434,200.556808 392.837677,189.347214 
	C394.107544,189.216675 395.161102,189.014420 396.214783,189.013779 
	C424.831909,188.996597 453.449127,188.979263 482.066040,189.054108 
	C483.699615,189.058365 487.152527,187.638626 485.326080,192.247116 
z"/>
<path fill="transparent" opacity="1.000000" stroke="none" 
	d="
M38.703377,211.205597 
	C33.359692,204.612625 29.497902,197.680710 27.817989,189.273712 
	C59.000763,189.273712 89.870399,189.273712 121.271347,189.273712 
	C117.418442,204.771820 109.045204,216.574661 94.466232,222.893677 
	C73.528267,231.968903 54.840729,228.013519 38.703377,211.205597 
z"/>
<path fill="transparent" opacity="1.000000" stroke="none" 
	d="
M213.000000,189.000000 
	C223.156387,189.000000 232.812775,189.000000 242.499237,189.000000 
	C238.210815,214.350540 216.385056,227.937805 195.612106,227.707489 
	C169.914825,227.422562 151.444412,206.298035 150.082611,189.000000 
	C170.909302,189.000000 191.704651,189.000000 213.000000,189.000000 
z"/>
<path fill="transparent" opacity="1.000000" stroke="none" 
	d="
M271.981323,191.162262 
	C272.030823,190.169586 272.067413,189.099991 272.166504,189.094162 
	C273.992310,188.986969 275.825592,189.000977 277.657288,189.000900 
	C306.633179,188.999634 335.609100,189.000000 364.617371,189.000000 
	C358.642090,215.334320 337.373749,228.089874 317.848114,227.649887 
	C296.142792,227.160782 278.363617,215.283508 271.981323,191.162262 
z"/>
<path fill="#ffffff" opacity="1.000000" stroke="none" 
	d="
M399.000122,306.055573 
	C399.333496,310.247894 399.925171,313.990204 399.954254,317.736877 
	C400.066803,332.225250 399.892487,346.716064 400.036102,361.203888 
	C400.139496,371.638550 397.325195,381.176849 390.395813,388.857544 
	C385.533875,394.246582 379.112305,398.650757 371.614777,398.856506 
	C345.899414,399.562134 320.153076,400.321838 294.447266,399.756409 
	C278.709045,399.410248 266.389313,390.797455 261.631409,374.082367 
	C260.664154,370.684265 260.103912,367.055145 260.071106,363.525818 
	C259.913086,346.539886 259.697845,329.544861 260.082733,312.566162 
	C260.488892,294.648315 269.810791,282.044128 287.742828,277.197021 
	C291.320618,276.229950 295.196198,276.069000 298.937073,276.050049 
	C319.587891,275.945404 340.240265,275.897888 360.890442,276.052368 
	C368.700012,276.110748 376.445007,277.389343 383.129822,281.710144 
	C391.794922,287.310883 397.656891,295.022156 399.000122,306.055573 
M347.499146,374.000000 
	C352.158691,374.000000 356.819885,373.919922 361.477386,374.018005 
	C369.218536,374.181030 373.741028,370.459869 373.902069,362.421722 
	C374.228638,346.119843 374.275085,329.799744 373.856873,313.502075 
	C373.700897,307.423920 370.801849,302.889801 364.367554,302.935791 
	C341.403778,303.099945 318.435364,302.832153 295.476837,303.215027 
	C292.645966,303.262207 289.256775,305.725830 287.265228,308.046875 
	C285.851074,309.694977 286.063629,312.985535 286.047546,315.546082 
	C285.951569,330.855408 285.991333,346.165680 286.003448,361.475616 
	C286.010101,369.858032 290.161041,373.991425 298.572662,373.996948 
	C314.548248,374.007446 330.523865,374.000000 347.499146,374.000000 
z"/>
<path fill="transparent" opacity="1.000000" stroke="none" 
	d="
M346.999298,374.000000 
	C330.523865,374.000000 314.548248,374.007446 298.572662,373.996948 
	C290.161041,373.991425 286.010101,369.858032 286.003448,361.475616 
	C285.991333,346.165680 285.951569,330.855408 286.047546,315.546082 
	C286.063629,312.985535 285.851074,309.694977 287.265228,308.046875 
	C289.256775,305.725830 292.645966,303.262207 295.476837,303.215027 
	C318.435364,302.832153 341.403778,303.099945 364.367554,302.935791 
	C370.801849,302.889801 373.700897,307.423920 373.856873,313.502075 
	C374.275085,329.799744 374.228638,346.119843 373.902069,362.421722 
	C373.741028,370.459869 369.218536,374.181030 361.477386,374.018005 
	C356.819885,373.919922 352.158691,374.000000 346.999298,374.000000 
z"/>
</svg>