<svg version="1.1" id="Layer_1" xmlns="http://www.w3.org/2000/svg" xmlns:xlink="http://www.w3.org/1999/xlink" x="0px" y="0px"
	 width="100%" viewBox="0 0 50 50" enable-background="new 0 0 50 50" xml:space="preserve">
<path fill="transparent" opacity="1.000000" stroke="none" 
	d="
M26.000000,51.000000 
	C17.685690,51.000000 9.371379,51.000000 1.028534,51.000000 
	C1.028534,34.390438 1.028534,17.780823 1.028534,1.085603 
	C17.571209,1.085603 34.142921,1.085603 50.857330,1.085603 
	C50.857330,17.665836 50.857330,34.332733 50.857330,51.000000 
	C45.246887,51.000000 39.593151,51.000000 33.171646,50.666191 
	C37.061958,46.068207 30.590364,42.249943 31.613016,37.958664 
	C31.701836,37.585960 26.714882,36.003647 24.807611,35.263409 
	C28.851625,33.492542 33.429260,31.407099 38.083824,29.510462 
	C39.157726,29.072870 40.520378,29.405624 41.705154,29.163593 
	C43.373623,28.822754 45.000118,28.276421 46.644554,27.817959 
	C46.262623,26.536886 46.261440,24.889120 45.437576,24.033663 
	C39.661964,18.036621 33.700508,12.219028 27.835220,6.307600 
	C26.076847,4.535394 23.935951,3.480843 22.197050,5.587434 
	C21.306141,6.666727 21.868370,8.945523 21.753860,11.049837 
	C21.503092,11.318238 20.429911,11.983847 20.077381,12.920645 
	C17.263952,20.396938 14.129416,27.610666 7.732013,32.907867 
	C6.771677,33.703049 5.792034,35.694729 6.148318,36.624321 
	C7.098607,39.103752 8.358563,41.745163 10.247351,43.523617 
	C13.772182,46.842541 16.101158,43.053135 18.163361,41.427803 
	C19.610031,42.962730 20.913931,44.186573 22.025330,45.565563 
	C23.432106,47.311047 24.682283,49.182739 26.000000,51.000000 
M42.418953,10.052270 
	C44.002769,8.357344 46.758648,6.917081 44.568516,4.984737 
	C41.817509,7.001026 39.137764,8.965085 36.458019,10.929144 
	C36.777561,11.399754 37.097107,11.870364 37.416653,12.340975 
	C38.915630,11.770060 40.414608,11.199144 42.418953,10.052270 
z"/>
<path fill="#FFFFFF" opacity="1.000000" stroke="none" 
	d="
M26.437500,51.000000 
	C24.682283,49.182739 23.432106,47.311047 22.025330,45.565563 
	C20.913931,44.186573 19.610031,42.962730 18.163361,41.427803 
	C16.101158,43.053135 13.772182,46.842541 10.247351,43.523617 
	C8.358563,41.745163 7.098607,39.103752 6.148318,36.624321 
	C5.792034,35.694729 6.771677,33.703049 7.732013,32.907867 
	C14.129416,27.610666 17.263952,20.396938 20.077381,12.920645 
	C20.429911,11.983847 21.503092,11.318238 21.753860,11.049837 
	C21.868370,8.945523 21.306141,6.666727 22.197050,5.587434 
	C23.935951,3.480843 26.076847,4.535394 27.835220,6.307600 
	C33.700508,12.219028 39.661964,18.036621 45.437576,24.033663 
	C46.261440,24.889120 46.262623,26.536886 46.644554,27.817959 
	C45.000118,28.276421 43.373623,28.822754 41.705154,29.163593 
	C40.520378,29.405624 39.157726,29.072870 38.083824,29.510462 
	C33.429260,31.407099 28.851625,33.492542 24.807611,35.263409 
	C26.714882,36.003647 31.701836,37.585960 31.613016,37.958664 
	C30.590364,42.249943 37.061958,46.068207 32.701939,50.666191 
	C30.958334,51.000000 28.916666,51.000000 26.437500,51.000000 
z"/>
<path fill="#FFFFFF" opacity="1.000000" stroke="none" 
	d="
M42.166267,10.340250 
	C40.414608,11.199144 38.915630,11.770060 37.416653,12.340975 
	C37.097107,11.870364 36.777561,11.399754 36.458019,10.929144 
	C39.137764,8.965085 41.817509,7.001026 44.568516,4.984737 
	C46.758648,6.917081 44.002769,8.357344 42.166267,10.340250 
z"/>
</svg>