<?xml version="1.0" encoding="UTF-8"?><svg id="Layer_2" xmlns="http://www.w3.org/2000/svg" viewBox="0 0 352.35 90.81"><defs><style>.cls-1{fill:#5f8f3e;}.cls-1,.cls-2,.cls-3,.cls-4{stroke-width:0px;}.cls-2{fill:#fff;}.cls-3{fill:#f9f9fa;}.cls-4{fill:#e2e2e2;}</style></defs><g id="Layer_1-2"><path class="cls-2" d="m93.22,42.51c1.14.67,2.96,1.19,4.82,1.19,2.96.1,5.03-1.71,5.03-4.46,0-2.33-1.3-3.68-3.48-5.81-2.75-2.65-4.15-5.45-4.15-8.51,0-6.48,4.56-11.05,11.41-11.05,2.7,0,4.41.57,5.24,1.09l-1.76,5.6c-1.04-.57-2.18-.93-3.79-.93-2.75,0-4.62,1.76-4.67,4.46,0,1.66.67,2.96,3.47,5.45,2.85,2.54,4.2,5.6,4.2,8.4,0,7.26-4.82,11.51-11.46,11.51-3.48,0-5.71-.78-6.54-1.3l1.66-5.65Z"/><path class="cls-2" d="m111.11,49.15l6.85-35.89h6.48l-2.65,13.64h.1c1.56-2.02,3.68-3.53,6.38-3.53,3.22,0,4.62,2.28,4.62,5.55,0,1.45-.26,3.06-.62,4.98l-2.9,15.25h-6.48l2.96-15.25c.16-.99.31-2.39.31-3.22,0-1.24-.47-2.02-1.56-2.02-1.5,0-3.48,2.18-4.2,6.02l-2.8,14.47h-6.48Z"/><path class="cls-2" d="m154.89,32.25c0,7.99-4.25,17.32-11.98,17.32-6.38,0-7.78-5.03-7.78-8.77,0-8.56,4.72-17.43,12.4-17.43,6.43,0,7.36,5.34,7.36,8.87Zm-13.33,8.25c0,1.87.05,4.15,2.07,4.15,3.11,0,4.88-8.61,4.88-13.17,0-1.71-.47-3.16-2.02-3.16-2.8,0-4.98,7.83-4.93,12.19Z"/><path class="cls-2" d="m153.85,59.11l5.13-26.97c.57-3.01.99-5.86,1.35-8.35h5.55l-.42,3.68h.1c1.56-2.54,3.99-4.1,6.33-4.1,4.56,0,5.45,3.94,5.45,7.83,0,8.51-4.56,18.36-11.98,18.36-1.14,0-2.39-.21-3.11-.62h-.16l-1.87,10.17h-6.38Zm9.18-14.99c.52.36,1.04.62,1.81.62,3.94,0,5.86-8.61,5.86-12.4,0-1.71-.16-3.48-1.87-3.48s-3.42,2.65-4.05,5.71l-1.76,9.54Z"/><path class="cls-2" d="m178.23,49.15l4.88-25.36h6.48l-4.88,25.36h-6.48Zm8.97-28.42c-2.02,0-2.9-1.5-2.9-3.42.05-1.87,1.35-3.99,3.63-3.99,2.13,0,3.11,1.61,3.06,3.37-.05,2.59-1.82,4.05-3.73,4.05h-.05Z"/><path class="cls-2" d="m190.47,49.15l3.99-20.8h-3.37l.83-4.56h3.42l.21-1.04c.57-3.01,1.71-5.6,3.84-7.57,1.56-1.45,3.84-2.33,6.43-2.33,1.66,0,2.9.26,3.68.52l-1.45,4.98c-.62-.21-1.19-.31-2.02-.31-2.33,0-3.68,2.44-4.1,4.67l-.21,1.09h4.93l-.88,4.56h-4.82l-3.99,20.8h-6.48Z"/><path class="cls-2" d="m213.29,23.79l.16,12.19c.05,2.39.1,4.15.05,6.02h.1c.52-2.07,1.04-3.79,1.92-6.48l3.84-11.72h6.53l-8.3,19.97c-2.49,5.81-5.34,10.68-8.45,13.54-1.5,1.4-3.27,2.49-4.36,2.96l-2.59-5.29c1.14-.57,2.33-1.24,3.37-2.07,1.45-1.19,2.85-2.65,3.48-4.05.1-.36.21-.62.16-1.14l-2.7-23.91h6.79Z"/><path class="cls-2" d="m241.77,33.7h-7.68l-1.92,9.7h8.82l-1.14,5.76h-15.25l6.69-34.96h14.63l-1.14,5.71h-8.04l-1.71,8.3h7.83l-1.09,5.5Z"/><path class="cls-2" d="m252.71,23.79l.78,4.56c.31,2.07.31,3.32.42,4.3h.16c.47-1.09,1.14-2.54,1.81-3.94l2.49-4.93h6.69l-8.35,12.65,3.37,12.71h-6.64l-.83-4.41c-.31-1.81-.47-2.7-.62-4.51h-.1c-.42.99-.88,2.07-1.82,4.05l-2.44,4.88h-6.69l8.4-12.86-3.32-12.5h6.69Z"/><path class="cls-2" d="m260.29,59.11l5.13-26.97c.57-3.01.99-5.86,1.35-8.35h5.55l-.42,3.68h.1c1.56-2.54,3.99-4.1,6.33-4.1,4.56,0,5.45,3.94,5.45,7.83,0,8.51-4.56,18.36-11.98,18.36-1.14,0-2.39-.21-3.11-.62h-.16l-1.87,10.17h-6.38Zm9.18-14.99c.52.36,1.04.62,1.82.62,3.94,0,5.86-8.61,5.86-12.4,0-1.71-.16-3.48-1.87-3.48s-3.42,2.65-4.04,5.71l-1.76,9.54Z"/><path class="cls-2" d="m301.67,48.06c-2.23.93-4.41,1.4-7.31,1.4-6.22,0-8.61-4.1-8.61-9.54,0-7.36,4.1-16.54,12.19-16.54,4.62,0,6.69,3.42,6.74,6.9,0,6.95-5.6,9.54-12.65,9.34-.05.73,0,2.02.57,2.96.62,1.04,1.76,1.82,3.53,1.82,2.13,0,3.63-.52,5.13-1.24l.42,4.93Zm-2.75-17.22c0-1.4-.57-2.28-1.82-2.28-1.97,0-3.73,2.54-4.46,6.17,3.42.16,6.28-1.19,6.28-3.84v-.05Z"/><path class="cls-2" d="m304.58,49.15l3.27-17.22c.57-2.9.93-5.81,1.3-8.14h5.55c-.1,1.3-.21,2.65-.36,4.2h.16c1.87-3.22,4.15-4.62,6.28-4.62.42,0,.73,0,1.04.1l-1.19,6.48c-.26,0-.73-.05-1.09-.05-2.8,0-5.45,3.22-6.22,7.52l-2.23,11.72h-6.48Z"/><path class="cls-2" d="m334.35,17.15l-1.3,6.64h4.77l-.83,4.56h-4.82l-2.23,11.67c-.16.88-.21,1.66-.21,2.18,0,1.56.78,2.13,1.97,2.13.47-.05,1.14,0,1.76-.1l-.78,4.82c-1.19.41-2.65.41-3.89.41-3.89,0-5.81-2.18-5.81-5.55,0-1.19.21-2.54.47-3.84l2.23-11.72h-2.96l.88-4.56h2.96l.88-4.51,6.9-2.13Z"/><path class="cls-2" d="m336.84,43.6c1.04.57,2.28,1.09,4.1,1.04,1.87-.05,2.91-1.24,2.91-2.85,0-1.4-.67-2.39-2.44-3.79-2.18-1.76-3.21-3.99-3.21-6.17,0-4.67,3.63-8.45,9.39-8.45,2.23,0,3.84.42,4.77.93l-1.4,4.72c-.73-.42-1.92-.78-3.01-.78-2.07,0-3.37,1.09-3.37,2.8,0,1.3.73,2.07,1.92,3.06,2.85,2.18,3.79,4.67,3.79,6.64,0,5.6-3.89,8.71-9.7,8.71-2.33,0-4.41-.67-5.29-1.3l1.56-4.56Z"/><path class="cls-2" d="m108.79,74.19c0,.74-.03,1.48-.08,2.23s-.16,1.48-.34,2.21c-.18.72-.44,1.42-.77,2.08-.33.67-.77,1.29-1.3,1.85-.7.74-1.57,1.3-2.6,1.69-1.03.39-2.16.58-3.38.58h-8.28v-21.27h8.28c1.22,0,2.34.19,3.38.58,1.03.39,1.89.96,2.6,1.69.54.56.97,1.17,1.3,1.83.33.66.58,1.35.77,2.07.18.72.29,1.46.34,2.21s.08,1.5.08,2.23Zm-3.93,0c0-.48-.01-.99-.03-1.53-.02-.54-.08-1.07-.18-1.6-.1-.53-.25-1.03-.45-1.51-.2-.48-.49-.91-.87-1.29-.36-.36-.79-.65-1.31-.87-.51-.22-1.08-.33-1.69-.33h-4.41v14.31h4.41c.62,0,1.19-.11,1.69-.33.51-.22.95-.51,1.31-.87.38-.38.67-.81.87-1.29.2-.48.35-.98.45-1.51s.16-1.07.18-1.62c.02-.55.03-1.06.03-1.54Z"/><path class="cls-2" d="m131.32,77.16c-.02.14-.03.27-.03.39v.66h-10.44c0,.6.09,1.17.29,1.71.19.54.48.99.85,1.35.28.26.6.48.98.67.37.19.81.29,1.33.29s.98-.06,1.33-.17c.35-.11.66-.3.94-.58.36-.36.61-.8.75-1.32h3.6c-.04.46-.19.97-.46,1.52-.27.55-.56,1-.85,1.37-.66.78-1.45,1.34-2.37,1.68s-1.88.51-2.88.51c-1.08,0-2.02-.18-2.81-.52-.79-.35-1.5-.81-2.11-1.4-.78-.76-1.38-1.67-1.79-2.73-.41-1.06-.62-2.23-.62-3.51s.19-2.42.56-3.5c.37-1.07.93-1.98,1.69-2.74.58-.6,1.29-1.08,2.12-1.44.83-.36,1.79-.54,2.87-.54,1.16,0,2.24.24,3.24.71,1,.47,1.82,1.2,2.46,2.18.58.86.95,1.74,1.11,2.62.16.89.24,1.83.24,2.8Zm-3.75-1.68c-.02-1.14-.34-2.05-.96-2.73-.26-.28-.58-.5-.98-.66-.39-.16-.85-.24-1.4-.24-.58,0-1.09.11-1.53.33-.44.22-.8.51-1.08.87-.28.34-.48.7-.6,1.08s-.19.83-.21,1.35h6.75Z"/><path class="cls-2" d="m147.82,84.84h-3.99l-5.79-15.6h3.96l3.9,10.98,3.69-10.98h3.87l-5.64,15.6Z"/><path class="cls-2" d="m174.55,77.16c-.02.14-.03.27-.03.39v.66h-10.44c0,.6.09,1.17.29,1.71.19.54.48.99.85,1.35.28.26.6.48.98.67.37.19.81.29,1.33.29s.98-.06,1.33-.17c.35-.11.66-.3.94-.58.36-.36.61-.8.75-1.32h3.6c-.04.46-.19.97-.46,1.52-.27.55-.56,1-.85,1.37-.66.78-1.45,1.34-2.37,1.68s-1.88.51-2.88.51c-1.08,0-2.02-.18-2.81-.52-.79-.35-1.5-.81-2.11-1.4-.78-.76-1.38-1.67-1.79-2.73-.41-1.06-.62-2.23-.62-3.51s.19-2.42.56-3.5c.37-1.07.93-1.98,1.69-2.74.58-.6,1.29-1.08,2.12-1.44.83-.36,1.79-.54,2.87-.54,1.16,0,2.24.24,3.24.71,1,.47,1.82,1.2,2.46,2.18.58.86.95,1.74,1.11,2.62.16.89.24,1.83.24,2.8Zm-3.75-1.68c-.02-1.14-.34-2.05-.96-2.73-.26-.28-.58-.5-.98-.66-.39-.16-.85-.24-1.4-.24-.58,0-1.09.11-1.53.33-.44.22-.8.51-1.08.87-.28.34-.48.7-.6,1.08s-.19.83-.21,1.35h6.75Z"/><path class="cls-2" d="m189.58,84.81c-.38.08-.66.13-.83.16-.17.03-.45.05-.83.05-1.28,0-2.31-.33-3.09-.99-.78-.66-1.17-1.73-1.17-3.21v-17.67h3.78v17.04c0,.46.09.82.27,1.09.18.27.59.41,1.23.41.16,0,.28,0,.36-.02.08,0,.17-.02.27-.02v3.15Z"/><path class="cls-2" d="m211.87,77.04c0,1.32-.16,2.43-.48,3.31-.32.89-.77,1.71-1.35,2.44-.54.66-1.29,1.23-2.23,1.71-.95.48-2.02.72-3.23.72s-2.27-.24-3.22-.72c-.95-.48-1.7-1.05-2.24-1.71-.58-.74-1.03-1.55-1.35-2.44-.32-.89-.48-2-.48-3.31s.16-2.42.48-3.32c.32-.89.77-1.7,1.35-2.44.54-.66,1.29-1.23,2.24-1.71.95-.48,2.02-.72,3.22-.72s2.27.24,3.23.72c.95.48,1.7,1.05,2.23,1.71.58.74,1.03,1.56,1.35,2.44.32.89.48,2,.48,3.32Zm-3.81,0c0-.74-.07-1.46-.21-2.15-.14-.69-.44-1.29-.9-1.79-.26-.28-.59-.51-.99-.71-.4-.19-.86-.29-1.38-.29s-.98.1-1.38.29c-.4.19-.73.43-.99.71-.46.5-.76,1.1-.9,1.79s-.21,1.41-.21,2.15.07,1.45.21,2.15c.14.69.44,1.29.9,1.78.26.28.59.52.99.71.4.19.86.29,1.38.29s.98-.09,1.38-.29c.4-.19.73-.42.99-.71.46-.5.76-1.09.9-1.78.14-.69.21-1.41.21-2.15Z"/><path class="cls-2" d="m235.6,77.01c0,1.54-.23,2.9-.69,4.06-.46,1.17-1.16,2.14-2.1,2.9-.48.4-1.04.71-1.67.93s-1.34.33-2.14.33c-.94,0-1.77-.15-2.48-.44s-1.24-.65-1.6-1.1v7.11h-3.75v-21.57h3.24l.24,1.71c.46-.72,1.09-1.24,1.89-1.57.8-.33,1.63-.5,2.49-.5.78,0,1.48.12,2.11.36.63.24,1.19.56,1.67.96.94.76,1.64,1.72,2.1,2.87.46,1.15.69,2.46.69,3.94Zm-3.81.06c0-.68-.07-1.35-.2-2.02-.13-.67-.4-1.26-.79-1.79-.28-.34-.62-.63-1.04-.87-.41-.24-.91-.36-1.48-.36-.74,0-1.34.16-1.8.46-.46.31-.82.71-1.08,1.2-.26.49-.43,1.04-.52,1.64-.09.6-.13,1.18-.13,1.74s.04,1.14.13,1.73.26,1.13.52,1.62.62.89,1.08,1.2c.46.31,1.06.47,1.8.47.58,0,1.07-.12,1.48-.36.41-.24.75-.53,1.04-.87.4-.52.67-1.11.79-1.77.13-.66.2-1.33.2-2.01Z"/><path class="cls-2" d="m258.1,77.16c-.02.14-.03.27-.03.39v.66h-10.44c0,.6.09,1.17.29,1.71.19.54.47.99.85,1.35.28.26.6.48.98.67.37.19.81.29,1.33.29s.98-.06,1.33-.17c.35-.11.66-.3.94-.58.36-.36.61-.8.75-1.32h3.6c-.04.46-.2.97-.46,1.52-.27.55-.56,1-.86,1.37-.66.78-1.45,1.34-2.37,1.68s-1.88.51-2.88.51c-1.08,0-2.01-.18-2.8-.52-.79-.35-1.5-.81-2.12-1.4-.78-.76-1.38-1.67-1.79-2.73s-.62-2.23-.62-3.51.19-2.42.56-3.5c.37-1.07.93-1.98,1.69-2.74.58-.6,1.29-1.08,2.12-1.44.83-.36,1.79-.54,2.87-.54,1.16,0,2.24.24,3.24.71,1,.47,1.82,1.2,2.46,2.18.58.86.95,1.74,1.11,2.62.16.89.24,1.83.24,2.8Zm-3.75-1.68c-.02-1.14-.34-2.05-.96-2.73-.26-.28-.58-.5-.97-.66-.39-.16-.86-.24-1.4-.24-.58,0-1.09.11-1.53.33-.44.22-.8.51-1.08.87-.28.34-.48.7-.6,1.08s-.19.83-.21,1.35h6.75Z"/><path class="cls-2" d="m276.4,72.72c-.46-.1-.89-.15-1.29-.15-1.32,0-2.32.42-3,1.26-.68.84-1.02,1.89-1.02,3.15v7.86h-3.78v-15.6h3.18l.33,2.34c.36-.9.95-1.55,1.78-1.95.83-.4,1.71-.6,2.62-.6.38,0,.77.03,1.17.09v3.6Z"/><path class="cls-2" d="m296.68,80.01c0,.76-.12,1.42-.38,1.98-.25.56-.58,1.04-.97,1.44-.64.64-1.42,1.1-2.34,1.38-.92.28-1.92.42-3,.42-1,0-1.93-.15-2.79-.44-.86-.29-1.61-.75-2.25-1.37-.46-.44-.85-.97-1.17-1.59-.32-.62-.48-1.3-.48-2.04h3.51c0,.34.08.68.24,1.02.16.34.36.61.6.81.3.24.63.42,1,.52.37.11.82.17,1.36.17.32,0,.67-.02,1.04-.08.37-.05.71-.14,1.04-.28.32-.14.58-.34.79-.6.21-.26.32-.6.32-1.02,0-.46-.14-.83-.42-1.11-.28-.28-.66-.46-1.14-.54-.7-.1-1.42-.18-2.16-.25-.74-.07-1.46-.19-2.16-.35-.54-.12-1.03-.31-1.46-.57-.43-.26-.81-.57-1.12-.95-.32-.37-.57-.78-.74-1.23-.17-.45-.25-.92-.25-1.42,0-.8.15-1.48.45-2.06.3-.57.68-1.05,1.14-1.46.58-.5,1.27-.88,2.07-1.15.8-.27,1.69-.41,2.67-.41s1.84.15,2.71.45,1.59.76,2.17,1.38c.42.46.75.97,1,1.52.25.55.38,1.12.38,1.69h-3.57c0-.3-.06-.57-.18-.81-.12-.24-.27-.46-.45-.66-.22-.22-.52-.39-.89-.52-.37-.13-.75-.2-1.15-.2-.28,0-.55.01-.81.03s-.53.09-.81.21c-.34.14-.63.35-.86.63-.23.28-.34.62-.34,1.02,0,.56.2.94.58,1.15.39.21.79.35,1.21.41.36.04.66.07.9.1.24.03.48.06.72.09.24.03.49.07.75.1.26.04.58.09.96.15,1.24.2,2.26.68,3.06,1.43s1.2,1.75,1.2,2.98Z"/><path class="cls-1" d="m77.25,66.34c.21,1.41.41,2.78.6,4.09-.19-1.31-.4-2.67-.6-4.09Z"/><path class="cls-1" d="m78.23,72.96c.18,1.22.35,2.37.51,3.44-.16-1.07-.33-2.22-.51-3.44Z"/><path class="cls-1" d="m78.74,76.4c.11.71.21,1.39.3,2.02-.09-.64-.19-1.31-.3-2.02Z"/><path class="cls-1" d="m70.15,18.27c.62,4.24,3.53,23.87,6.01,40.69-2.49-16.81-5.39-36.45-6.01-40.69Z"/><path class="cls-1" d="m76.16,58.96c.3,2.04.6,4.03.88,5.96-.28-1.92-.58-3.92-.88-5.96Z"/><path class="cls-1" d="m70.06,17.68c.02.14.05.34.09.6-.04-.26-.07-.46-.09-.6Z"/><path class="cls-1" d="m70.03,17.44s.01.09.03.23c-.02-.14-.03-.22-.03-.23Z"/><path class="cls-3" d="m55.78,10.47c.12.02.24.06.35.1-.11-.04-.23-.08-.35-.1Z"/><path class="cls-3" d="m56.22,10.6c.11.05.22.12.31.21-.09-.09-.2-.15-.31-.21Z"/><path class="cls-3" d="m54.55,10.56s-1.01.31-2.71.84c-.28-.92-.7-2.05-1.3-3.19-1.92-3.66-4.73-5.6-8.13-5.61h-.01c-.24,0-.47.02-.71.04-.1-.12-.2-.24-.31-.35C39.91.71,38.01-.06,35.74,0c-4.39.13-8.76,3.3-12.3,8.92-2.49,3.96-4.39,8.94-4.93,12.79-5.04,1.56-8.56,2.65-8.64,2.68-2.54.8-2.62.88-2.96,3.27-.25,1.81-6.91,53.28-6.91,53.28l55.78,9.65h0s0-80.13,0-80.13c-.47-.07-.98.02-1.23.09Zm-12.75,3.95c-2.92.9-6.11,1.89-9.31,2.88.9-3.45,2.61-6.88,4.7-9.13.78-.84,1.87-1.77,3.16-2.3,1.21,2.53,1.48,6.12,1.45,8.54Zm-5.98-11.58c1.03-.02,1.9.2,2.64.69-1.19.62-2.33,1.5-3.41,2.65-2.79,2.99-4.92,7.63-5.77,12.11-2.66.82-5.26,1.63-7.65,2.37,1.51-7.05,7.42-17.63,14.19-17.83Zm-13.83,47.49c2.7,2.41,3.98,5.31,3.98,7.96,0,6.88-4.57,10.91-10.87,10.91-3.29,0-5.41-.74-6.19-1.23l1.57-5.36c1.08.64,2.8,1.13,4.57,1.13,2.8.1,4.77-1.62,4.77-4.23,0-2.21-1.23-3.49-3.29-5.51-2.61-2.51-3.93-5.16-3.93-8.06,0-6.15,4.33-10.47,10.82-10.47,2.56,0,4.18.54,4.97,1.03l-1.67,5.31c-.98-.54-2.06-.88-3.59-.88-2.61,0-4.38,1.67-4.42,4.23,0,1.57.64,2.8,3.29,5.16Zm25.32-9.14h-7.62l-1.62,7.87h7.42l-1.03,5.21h-7.28l-1.82,9.19h8.36l-1.08,5.46h-14.45l6.34-33.14h13.86l-1.08,5.41Zm-2.59-27.67c-.03-2.22-.3-5.31-1.33-7.99,3.33.63,4.97,4.4,5.66,6.65-1.28.4-2.75.85-4.33,1.34Z"/><polygon class="cls-3" points="55.78 10.47 55.78 10.47 55.78 10.47 55.78 10.47"/><path class="cls-3" d="m56.13,10.57s.06.02.08.04c-.03-.01-.06-.03-.08-.04Z"/><polygon class="cls-3" points="79.95 84.58 55.78 90.59 55.78 90.59 79.95 84.58"/><path class="cls-4" d="m79.04,78.43c-.09-.64-.19-1.31-.3-2.02-.16-1.07-.33-2.22-.51-3.44-.12-.81-.25-1.66-.37-2.53-.19-1.31-.4-2.67-.6-4.09-.07-.47-.14-.95-.21-1.43-.28-1.92-.58-3.92-.88-5.96-2.49-16.81-5.39-36.45-6.01-40.69-.04-.26-.07-.46-.09-.6s-.03-.22-.03-.23c-.06-.46-.46-.71-.79-.74-.33-.03-6.78-.13-6.78-.13,0,0-5.39-5.24-5.93-5.77-.09-.09-.2-.15-.31-.21-.03-.01-.06-.03-.08-.04-.11-.04-.23-.08-.35-.1,0,0,0,0,0,0v80.13s24.17-6.01,24.17-6.01c0,0-.35-2.34-.91-6.16Z"/></g></svg>